<svg xmlns="http://www.w3.org/2000/svg" viewBox="0 0 100 100">
<!-- SVG created with Arrow, by QuiverAI (https://quiver.ai) -->
  <path d="m97.9 43.4c-0.7-11.6-7.2-22.9-15.7-29.8-5.7-4.5-12.2-7.6-20.1-7.9-7.5-0.3-15.4 1.7-21.6 6.4-2.9 2.1-4.6 3.9-6.4 6-1.6 1.9-3.5 4.4-5.3 7.2-7 0.1-13.4 2.6-18.3 7.1-3.2 2.8-6.5 7.9-7.6 12.7-1.1 4.7-1 9-0.1 14.3 0.6 3.4 1.6 6.1 2.4 8.4 1.5 3.9 3.8 8.1 6.5 11.4 4.9 6.3 12.7 13 23.5 14.7 8.4 1.2 15.7-0.5 21.6-3.9 5-2.7 10.6-7.9 14.6-14.9 3.8-0.1 7.8-0.7 11.5-2.5 5.3-2.6 9.3-6.2 12.2-11.8 2.3-4.4 3.2-10.4 2.8-17.4zm-46.6-30.2c4.3-1.4 8.6-2.2 14.9-1.1 6.5 1.1 13.7 5.6 18.5 11.7 1.4 1.9 2.8 4.1 4.2 6.8-2.7-1.5-4.8-2.7-8.5-3.8-6.3-1.9-12.8-1.9-20.1-0.2-7.6 1.9-14.3 6.5-18.7 10.6-3.5 3.5-6.5 7.2-9.6 12.7-0.9-3.5-1.5-7.3-0.8-12.2 1.2-8.2 5.7-14.6 10.9-18.8 3-2.4 5.8-4.4 9.2-5.5zm13.4 29.6c-2.8 6.2-6.8 11.9-12.5 16.7-2.6 2.3-5.5 4.1-8.8 5.9-1.5-1-4.4-3.2-5.8-5l-2.2-3c1.8-4.3 4.2-8 7-11.4 3.6-4.1 8.3-8.1 14.2-11.2 2.8 1.8 5.9 4.6 8.1 8zm-56.9 10.8c-0.2-4.2 1.2-9.2 3.8-12.7 3-4.2 8.3-8.5 14.6-9.5-2.1 7.2-1.8 15.5 0.5 21.8 1.7 4.5 4.7 9.7 9.7 14.5-1.8 0.4-5 0.9-7.3 0.9-6.4-0.2-10.9-1.9-14.2-4.2-3.5-2.4-6.3-7-7.1-10.5zm48.8 28.8c-3.7 2.7-8.5 5.7-16.5 6.2-7.2 0.1-13.1-2-18.4-5.9-3-2.1-7.6-7-10.3-13.7 4.7 3.1 10 5.6 18.5 6 6.8 0.1 12.3-1.4 17.7-4 6.8-3.1 13.6-9 19-17.4l1.5-2.6v-0.1-0.1l0.7-1c1.6 5.1 1.2 10.8-0.7 16.9-2 5.3-4.9 10.7-11.5 15.7zm17.3-14c0.7-2.8 1.5-5.3 1.5-10.5 0-8-3-16.8-11.8-25.9 3.6-1 8.1-1.4 12.3-0.6 6.5 1.2 14 5.7 16.2 14 0.6 2.7-0.2 7.5-1.7 10.8-2.3 4.7-6.5 10.4-16.5 12.2z"/>
</svg>