<svg width="697" height="120" viewBox="0 0 697 120" fill="none" xmlns="http://www.w3.org/2000/svg">
<path d="M97.9 53.4C97.2 41.8 90.7 30.5 82.2 23.6C76.5 19.1 70 16 62.1 15.7C54.6 15.4 46.7 17.4 40.5 22.1C37.6 24.2 35.9 26 34.1 28.1C32.5 30 30.6 32.5 28.8 35.3C21.8 35.4 15.4 37.9 10.5 42.4C7.30001 45.2 4.00001 50.3 2.90001 55.1C1.80001 59.8 1.90001 64.1 2.80001 69.4C3.40001 72.8 4.40001 75.5 5.20001 77.8C6.70001 81.7 9.00001 85.9 11.7 89.2C16.6 95.5 24.4 102.2 35.2 103.9C43.6 105.1 50.9 103.4 56.8 100C61.8 97.3 67.4 92.1 71.4 85.1C75.2 85 79.2 84.4 82.9 82.6C88.2 80 92.2 76.4 95.1 70.8C97.4 66.4 98.3 60.4 97.9 53.4ZM51.3 23.2C55.6 21.8 59.9 21 66.2 22.1C72.7 23.2 79.9 27.7 84.7 33.8C86.1 35.7 87.5 37.9 88.9 40.6C86.2 39.1 84.1 37.9 80.4 36.8C74.1 34.9 67.6 34.9 60.3 36.6C52.7 38.5 46 43.1 41.6 47.2C38.1 50.7 35.1 54.4 32 59.9C31.1 56.4 30.5 52.6 31.2 47.7C32.4 39.5 36.9 33.1 42.1 28.9C45.1 26.5 47.9 24.5 51.3 23.4V23.2ZM64.7 52.8C61.9 59 57.9 64.7 52.2 69.5C49.6 71.8 46.7 73.6 43.4 75.4C41.9 74.4 39 72.2 37.6 70.4L35.4 67.4C37.2 63.1 39.6 59.4 42.4 56C46 51.9 50.7 47.9 56.6 44.8C59.4 46.6 62.5 49.4 64.7 52.8ZM7.80001 63.6C7.60001 59.4 9.00001 54.4 11.6 50.9C14.6 46.7 19.9 42.4 26.2 41.4C24.1 48.6 24.4 56.9 26.7 63.2C28.4 67.7 31.4 72.9 36.4 77.7C34.6 78.1 31.4 78.6 29.1 78.6C22.7 78.4 18.2 76.7 14.9 74.4C11.4 72 8.60001 67.4 7.80001 63.9V63.6ZM56.6 92.4C52.9 95.1 48.1 98.1 40.1 98.6C32.9 98.7 27 96.6 21.7 92.7C18.7 90.6 14.1 85.7 11.4 79C16.1 82.1 21.4 84.6 29.9 85C36.7 85.1 42.2 83.6 47.6 81C54.4 77.9 61.2 72 66.6 63.6L68.1 61V60.9V60.8L68.8 59.8C70.4 64.9 70 70.6 68.1 76.7C66.1 82 63.2 87.4 56.6 92.4ZM73.9 78.4C74.6 75.6 75.4 73.1 75.4 67.9C75.4 59.9 72.4 51.1 63.6 42C67.2 41 71.7 40.6 75.9 41.4C82.4 42.6 89.9 47.1 92.1 55.4C92.7 58.1 91.9 62.9 90.4 66.2C88.1 70.9 83.9 76.6 73.9 78.4Z" fill="white"/>
<path d="M152.208 94.104C142.032 94.104 133.744 90.808 127.344 84.216C120.976 77.592 117.792 69.096 117.792 58.728C117.792 48.168 121.088 39.608 127.68 33.048C134.304 26.456 142.592 23.16 152.544 23.16C156.48 23.16 159.968 23.624 163.008 24.552C166.048 25.48 168.768 26.712 171.168 28.248C173.6 29.752 175.52 31.272 176.928 32.808C178.336 34.312 179.04 35.064 179.04 35.064L173.712 39.816C173.712 39.816 173.088 39.144 171.84 37.8C170.592 36.456 169.056 35.224 167.232 34.104C165.408 32.984 163.296 32.056 160.896 31.32C158.528 30.584 155.76 30.216 152.592 30.216C144.912 30.216 138.464 32.84 133.248 38.088C128.032 43.336 125.424 50.2 125.424 58.68C125.424 67 127.936 73.816 132.96 79.128C138.016 84.408 144.48 87.048 152.352 87.048C155.712 87.048 158.72 86.648 161.376 85.848C164.032 85.048 166.368 83.96 168.384 82.584C170.432 81.176 172.032 79.784 173.184 78.408C174.336 77 174.912 76.296 174.912 76.296L180.528 80.856C180.528 80.856 179.76 81.784 178.224 83.64C176.688 85.464 174.656 87.192 172.128 88.824C169.6 90.424 166.704 91.704 163.44 92.664C160.176 93.624 156.432 94.104 152.208 94.104ZM188.575 93V24.264H195.871V93H188.575ZM230.406 94.104C223.078 94.104 216.966 91.576 212.07 86.52C207.174 81.464 204.726 75.304 204.726 68.04C204.726 60.776 207.174 54.632 212.07 49.608C216.998 44.552 223.11 42.024 230.406 42.024C237.67 42.024 243.766 44.552 248.694 49.608C253.622 54.664 256.086 60.808 256.086 68.04C256.086 75.304 253.622 81.464 248.694 86.52C243.798 91.576 237.702 94.104 230.406 94.104ZM230.406 87.096C235.398 87.096 239.686 85.288 243.27 81.672C246.854 78.056 248.646 73.512 248.646 68.04C248.646 62.536 246.854 58.008 243.27 54.456C239.686 50.872 235.398 49.08 230.406 49.08C225.382 49.08 221.078 50.872 217.494 54.456C213.942 58.04 212.166 62.568 212.166 68.04C212.166 73.512 213.942 78.056 217.494 81.672C221.046 85.288 225.35 87.096 230.406 87.096ZM264.887 93V43.128H271.991V51.72L270.887 50.76H272.087C273.623 48.264 275.863 46.184 278.807 44.52C281.783 42.856 284.967 42.024 288.359 42.024C294.087 42.024 298.519 43.784 301.655 47.304C304.823 50.792 306.407 55.432 306.407 61.224V93H299.111V62.424C299.111 58.296 298.103 55.016 296.087 52.584C294.071 50.152 290.919 48.936 286.631 48.936C282.663 48.936 279.255 50.424 276.407 53.4C273.591 56.344 272.183 60.056 272.183 64.536V93H264.887ZM318.779 93V43.128H326.123V93H318.779ZM322.427 35.64C321.019 35.64 319.803 35.144 318.779 34.152C317.787 33.128 317.291 31.896 317.291 30.456C317.291 29.016 317.787 27.816 318.779 26.856C319.803 25.864 321.019 25.368 322.427 25.368C323.899 25.368 325.115 25.864 326.075 26.856C327.067 27.816 327.563 29.016 327.563 30.456C327.563 31.896 327.067 33.128 326.075 34.152C325.115 35.144 323.899 35.64 322.427 35.64ZM354.737 94.104C351.281 94.104 348.385 93.064 346.049 90.984C343.713 88.872 342.545 85.464 342.545 80.76V30.216H349.841V79.896C349.841 82.648 350.353 84.6 351.377 85.752C352.433 86.872 353.937 87.432 355.889 87.432C356.625 87.432 357.329 87.384 358.001 87.288C358.673 87.16 359.505 86.952 360.497 86.664C361.489 86.376 361.985 86.232 361.985 86.232V92.856C361.985 92.856 361.505 92.984 360.545 93.24C359.617 93.528 358.673 93.736 357.713 93.864C356.785 94.024 355.793 94.104 354.737 94.104ZM334.145 49.56V43.128H362.225V49.56H334.145ZM393.062 94.104C385.734 94.104 379.622 91.576 374.726 86.52C369.83 81.464 367.382 75.304 367.382 68.04C367.382 60.776 369.83 54.632 374.726 49.608C379.654 44.552 385.766 42.024 393.062 42.024C400.326 42.024 406.422 44.552 411.35 49.608C416.278 54.664 418.742 60.808 418.742 68.04C418.742 75.304 416.278 81.464 411.35 86.52C406.454 91.576 400.358 94.104 393.062 94.104ZM393.062 87.096C398.054 87.096 402.342 85.288 405.926 81.672C409.51 78.056 411.302 73.512 411.302 68.04C411.302 62.536 409.51 58.008 405.926 54.456C402.342 50.872 398.054 49.08 393.062 49.08C388.038 49.08 383.734 50.872 380.15 54.456C376.598 58.04 374.822 62.568 374.822 68.04C374.822 73.512 376.598 78.056 380.15 81.672C383.702 85.288 388.006 87.096 393.062 87.096ZM427.544 93V43.128H434.648V51.672L434.023 51.096H434.744C436.28 48.216 438.36 45.992 440.984 44.424C443.64 42.824 446.344 42.024 449.096 42.024C449.64 42.024 450.296 42.072 451.064 42.168C451.832 42.232 452.536 42.344 453.176 42.504C453.848 42.632 454.184 42.696 454.184 42.696V50.136C454.184 50.136 453.832 50.056 453.128 49.896C452.424 49.704 451.624 49.56 450.728 49.464C449.864 49.368 449.208 49.32 448.76 49.32C445.016 49.32 441.752 50.76 438.968 53.64C436.216 56.52 434.84 60.312 434.84 65.016V93H427.544ZM572.219 94.104C564.891 94.104 558.779 91.576 553.883 86.52C548.987 81.464 546.539 75.304 546.539 68.04C546.539 60.776 548.987 54.632 553.883 49.608C558.811 44.552 564.923 42.024 572.219 42.024C579.483 42.024 585.579 44.552 590.507 49.608C595.435 54.664 597.899 60.808 597.899 68.04C597.899 75.304 595.435 81.464 590.507 86.52C585.611 91.576 579.515 94.104 572.219 94.104ZM572.219 87.096C577.211 87.096 581.499 85.288 585.083 81.672C588.667 78.056 590.459 73.512 590.459 68.04C590.459 62.536 588.667 58.008 585.083 54.456C581.499 50.872 577.211 49.08 572.219 49.08C567.195 49.08 562.891 50.872 559.307 54.456C555.755 58.04 553.979 62.568 553.979 68.04C553.979 73.512 555.755 78.056 559.307 81.672C562.859 85.288 567.163 87.096 572.219 87.096ZM629.164 94.104C621.9 94.104 615.852 91.656 611.02 86.76C606.22 81.832 603.82 75.576 603.82 67.992C603.82 60.408 606.252 54.184 611.116 49.32C615.98 44.456 622.028 42.024 629.26 42.024C632.588 42.024 635.564 42.504 638.188 43.464C640.844 44.392 643.212 45.752 645.292 47.544C647.372 49.336 649.372 52.152 651.292 55.992L644.524 58.872C643.02 56.216 641.58 54.248 640.204 52.968C638.86 51.688 637.26 50.68 635.404 49.944C633.58 49.208 631.5 48.84 629.164 48.84C624.236 48.84 620.028 50.632 616.54 54.216C613.052 57.768 611.308 62.36 611.308 67.992C611.308 73.592 613.052 78.2 616.54 81.816C620.028 85.432 624.236 87.24 629.164 87.24C631.436 87.24 633.452 86.888 635.212 86.184C637.004 85.48 638.62 84.44 640.06 83.064C641.532 81.656 643.036 79.592 644.572 76.872L651.292 79.944C649.596 83.4 647.708 86.072 645.628 87.96C643.58 89.848 641.228 91.352 638.572 92.472C635.916 93.56 632.78 94.104 629.164 94.104ZM675.664 94.104C672.336 94.104 669.456 93.688 667.024 92.856C664.624 91.992 662.528 90.744 660.736 89.112C658.976 87.48 657.632 85.752 656.704 83.928C655.776 82.104 655.312 81.192 655.312 81.192L661.936 78.12C661.936 78.12 662.352 78.84 663.184 80.28C664.016 81.688 664.992 82.936 666.112 84.024C667.264 85.112 668.64 85.96 670.24 86.568C671.84 87.176 673.824 87.48 676.192 87.48C679.328 87.48 681.92 86.808 683.968 85.464C686.016 84.12 687.04 82.248 687.04 79.848C687.04 77.512 686.208 75.736 684.544 74.52C682.88 73.304 679.696 72.136 674.992 71.016C668.272 69.384 663.632 67.4 661.072 65.064C658.512 62.696 657.232 59.656 657.232 55.944C657.232 51.88 658.944 48.552 662.368 45.96C665.824 43.336 670.192 42.024 675.472 42.024C678.096 42.024 680.4 42.344 682.384 42.984C684.4 43.624 686.208 44.616 687.808 45.96C689.408 47.272 690.688 48.712 691.648 50.28C692.608 51.816 693.088 52.584 693.088 52.584L686.8 55.8C686.8 55.8 686.432 55.256 685.696 54.168C684.992 53.048 684.128 52.072 683.104 51.24C682.08 50.408 680.896 49.784 679.552 49.368C678.24 48.952 676.72 48.744 674.992 48.744C671.824 48.744 669.296 49.416 667.408 50.76C665.552 52.072 664.624 53.672 664.624 55.56C664.624 57.768 665.536 59.48 667.36 60.696C669.184 61.88 672.528 63.048 677.392 64.2C683.6 65.672 688 67.544 690.592 69.816C693.216 72.056 694.528 75.224 694.528 79.32C694.528 83.864 692.768 87.464 689.248 90.12C685.76 92.776 681.232 94.104 675.664 94.104Z" fill="white"/>
<path d="M483.446 93V24.264H505.19C515.718 24.264 524.118 27.384 530.39 33.624C536.662 39.864 539.798 48.184 539.798 58.584C539.798 68.92 536.646 77.24 530.342 83.544C524.038 89.848 515.654 93 505.19 93H483.446ZM490.886 85.944H505.19C513.51 85.944 520.086 83.512 524.917 78.648C529.75 73.752 532.166 67.096 532.166 58.68C532.166 50.232 529.766 43.56 524.966 38.664C520.166 33.768 513.574 31.32 505.19 31.32H490.886V85.944Z" fill="#00C8B3"/>
</svg>
